<svg width="265" height="255" viewBox="0 0 265 255" fill="none" xmlns="http://www.w3.org/2000/svg">
<path d="M129.89 229.236C183.999 229.236 227.863 186.402 227.863 133.562C227.863 80.723 183.999 37.8882 129.89 37.8882C75.7818 37.8882 31.918 80.723 31.918 133.562C31.918 186.402 75.7818 229.236 129.89 229.236Z" stroke="black" stroke-width="0.2" stroke-miterlimit="10"/>
<path d="M127.151 254.263C188.536 254.263 238.299 205.125 238.299 144.511C238.299 83.8972 188.536 34.7598 127.151 34.7598C65.7649 34.7598 16.002 83.8972 16.002 144.511C16.002 205.125 65.7649 254.263 127.151 254.263Z" stroke="black" stroke-width="0.2" stroke-miterlimit="10"/>
<path d="M110.975 37.2363C120.99 37.2363 129.109 29.1245 129.109 19.1181C129.109 9.11176 120.99 1 110.975 1C100.96 1 92.8418 9.11176 92.8418 19.1181C92.8418 29.1245 100.96 37.2363 110.975 37.2363Z" stroke="black" stroke-width="0.2" stroke-miterlimit="10"/>
<path d="M147.893 37.2363C157.908 37.2363 166.027 29.1245 166.027 19.1181C166.027 9.11176 157.908 1 147.893 1C137.878 1 129.76 9.11176 129.76 19.1181C129.76 29.1245 137.878 37.2363 147.893 37.2363Z" stroke="black" stroke-width="0.2" stroke-miterlimit="10"/>
<path d="M47.3119 34.7598C47.3119 34.7598 40.2673 69.4319 1 79.4685C1 128.739 1 140.731 1 140.731H16.0025C16.0025 140.731 15.4806 100.585 48.8774 65.5215C64.2712 53.9207 81.6219 44.275 81.6219 44.275L95.3198 38.5398L98.1898 37.7577C96.233 36.8453 74.3163 51.8351 48.8774 37.8881" stroke="black" stroke-width="0.2" stroke-miterlimit="10"/>
<path d="M163.809 40.886C163.809 40.886 192.378 50.7923 201.119 48.055C209.86 45.3178 218.339 35.8025 218.339 35.8025L219.774 32.0225C219.774 32.0225 230.211 72.4298 256.693 78.5561" stroke="black" stroke-width="0.2" stroke-miterlimit="10"/>
<path d="M238.299 159.762C238.299 159.762 243.908 151.811 245.604 140.862C247.3 129.913 249.648 128.87 249.518 132.65C249.518 136.43 256.824 137.603 256.824 137.603L264.39 137.733V81.6845C264.39 81.6845 260.607 80.7721 255.91 78.8169" stroke="black" stroke-width="0.2" stroke-miterlimit="10"/>
</svg>
